<?xml version="1.0" encoding="utf-8"?>
<!-- Generator: Adobe Illustrator 27.0.0, SVG Export Plug-In . SVG Version: 6.00 Build 0)  -->
<svg version="1.1" id="Layer_1" xmlns="http://www.w3.org/2000/svg" xmlns:xlink="http://www.w3.org/1999/xlink" x="0px" y="0px"
	 viewBox="0 0 221.7 222.3" style="enable-background:new 0 0 221.7 222.3;" xml:space="preserve">
<style type="text/css">
	.st0{fill:#545454;}
</style>
<path class="st0" d="M110.9,39.5c-18,0-32.6,14.7-32.6,32.6v13h-6.5c-7.2,0-13,5.9-13,13v58.7c0,7.2,5.9,13,13,13H150
	c7.2,0,13-5.9,13-13V98.2c0-7.2-5.9-13-13-13h-6.5v-13C143.4,54.2,128.8,39.5,110.9,39.5z M91.3,72.2c0-10.8,8.8-19.5,19.5-19.5
	s19.5,8.8,19.5,19.5v13H91.3V72.2z M150,157h-32.6v-14.9c3.9-2.3,6.5-6.4,6.5-11.2c0-7.2-5.9-13-13-13c-7.2,0-13,5.9-13,13
	c0,4.8,2.7,8.9,6.5,11.2V157H71.7V98.3H150C150,98.3,150,157,150,157z"/>
</svg>
